<?xml version="1.0" encoding="UTF-8"?>
<svg width="14px" height="14px" viewBox="0 0 14 14" version="1.1" xmlns="http://www.w3.org/2000/svg" xmlns:xlink="http://www.w3.org/1999/xlink">
    <!-- Generator: Sketch 46.2 (44496) - http://www.bohemiancoding.com/sketch -->
    <title>Group</title>
    <desc>Created with Sketch.</desc>
    <defs></defs>
    <g id="Page-1" stroke="none" stroke-width="1" fill="none" fill-rule="evenodd">
        <g id="material_common_sprite39" transform="translate(-2.000000, -685.000000)" fill="#000000">
            <g id="Group" transform="translate(2.000000, 685.000000)">
                <path d="M6,10 L14,10 L14,8 L6,8 L6,10 L6,10 Z M3.5,7 L0,3.5 L0,10.5 L3.5,7 L3.5,7 Z M0,14 L14,14 L14,12 L0,12 L0,14 L0,14 Z M0,0 L0,2 L14,2 L14,0 L0,0 L0,0 Z M6,6 L14,6 L14,4 L6,4 L6,6 L6,6 Z" id="Shape"></path>
            </g>
        </g>
    </g>
</svg>