<?xml version="1.0" encoding="UTF-8"?>
<svg width="18px" height="8px" viewBox="0 0 18 8" version="1.1" xmlns="http://www.w3.org/2000/svg" xmlns:xlink="http://www.w3.org/1999/xlink">
    <!-- Generator: Sketch 46.2 (44496) - http://www.bohemiancoding.com/sketch -->
    <title>Group</title>
    <desc>Created with Sketch.</desc>
    <defs></defs>
    <g id="Page-1" stroke="none" stroke-width="1" fill="none" fill-rule="evenodd">
        <g id="material_common_sprite39" transform="translate(0.000000, -238.000000)" fill="#000000">
            <g id="Group" transform="translate(0.000000, 238.000000)">
                <path d="M1.9,4 C1.9,2.84 2.84,1.9 4,1.9 L8,1.9 L8,0 L4,0 C1.79,0 0,1.79 0,4 C0,6.21 1.79,8 4,8 L8,8 L8,6.1 L4,6.1 C2.84,6.1 1.9,5.16 1.9,4 L1.9,4 Z M14,0 L10,0 L10,1.9 L14,1.9 C15.16,1.9 16.1,2.84 16.1,4 C16.1,5.16 15.16,6.1 14,6.1 L10,6.1 L10,8 L14,8 C16.21,8 18,6.21 18,4 C18,1.79 16.21,0 14,0 L14,0 Z M6,5 L12,5 L12,3 L6,3 L6,5 L6,5 Z" id="Shape"></path>
            </g>
        </g>
    </g>
</svg>