<?xml version="1.0" encoding="UTF-8"?>
<svg width="16px" height="14px" viewBox="0 0 16 14" version="1.1" xmlns="http://www.w3.org/2000/svg" xmlns:xlink="http://www.w3.org/1999/xlink">
    <!-- Generator: Sketch 46.2 (44496) - http://www.bohemiancoding.com/sketch -->
    <title>todo-list</title>
    <desc>Created with Sketch.</desc>
    <defs></defs>
    <g id="Page-2" stroke="none" stroke-width="1" fill="none" fill-rule="evenodd">
        <g id="todo-list" fill-rule="nonzero" fill="#000000">
            <path d="M4.19767595,0.1640625 L1.99179359,2.078125 L1.13044905,1.33072917 L0.1640625,2.16927083 L1.50860032,3.3359375 L1.99179359,3.73697917 L2.47498687,3.3359375 L5.1640625,1.00260417 L4.19767595,0.1640625 Z M6.41666667,1.16666667 L6.41666667,3.16666667 L15.4166667,3.16666667 L15.4166667,1.16666667 L6.41666667,1.16666667 Z M4.19767595,4.83072917 L1.99179359,6.74479167 L1.13044905,5.99739583 L0.1640625,6.8359375 L1.50860032,8.00260417 L1.99179359,8.40364583 L2.47498687,8.00260417 L5.1640625,5.66927083 L4.19767595,4.83072917 Z M6.41666667,5.83333333 L6.41666667,7.83333333 L15.4166667,7.83333333 L15.4166667,5.83333333 L6.41666667,5.83333333 Z M4.19767595,9.49739583 L1.99179359,11.7032782 L1.13044905,10.8419336 L0.1640625,11.8083202 L1.50860032,13.152858 L1.99179359,13.6150429 L2.47498687,13.152858 L5.1640625,10.4637824 L4.19767595,9.49739583 Z M6.41666667,10.5 L6.41666667,12.5 L15.4166667,12.5 L15.4166667,10.5 L6.41666667,10.5 Z" id="Shape"></path>
        </g>
    </g>
</svg>