<?xml version="1.0" encoding="UTF-8"?>
<svg width="16px" height="14px" viewBox="0 0 16 14" version="1.1" xmlns="http://www.w3.org/2000/svg" xmlns:xlink="http://www.w3.org/1999/xlink">
    <!-- Generator: Sketch 46.2 (44496) - http://www.bohemiancoding.com/sketch -->
    <title>Group</title>
    <desc>Created with Sketch.</desc>
    <defs></defs>
    <g id="Page-1" stroke="none" stroke-width="1" fill="none" fill-rule="evenodd">
        <g id="material_common_sprite39" transform="translate(-19.000000, -1097.000000)" fill="#000000">
            <g id="Group" transform="translate(19.000000, 1097.000000)">
                <path d="M4,3 L12.0037973,3 C14.2108391,3 16,4.79535615 16,7 C16,8.62283851 15.0346747,10.0199573 13.6472354,10.6472354 L11.9999825,8.99998249 C13.1026715,8.99540428 14,8.1017358 14,7 C14,5.88772964 13.1007504,5 11.9914698,5 L8,5 L8,5 L9,5 L9,3 L6,3 L4,3 L5,4 L13.5,12.5 L12.5,13.5 L10,11 L3.99620271,11 C1.78916089,11 8.8817842e-16,9.20464385 8.8817842e-16,7 C8.8817842e-16,5.37716149 0.965325286,3.98004273 2.3527646,3.3527646 L0.5,1.5 L1.5,0.5 L4,3 Z M8,9 L4.0085302,9 C2.8992496,9 2,8.11227036 2,7 C2,5.8982642 2.8973285,5.00459572 4.00001767,5.00001767 L5,6 L5,8 L7,8 L8,9 L7,9 L7,11 L9,11 L9,10 L10,11 L8,9 Z M9,6 L11,6 L11,8 L9,6 Z" id="Shape"></path>
            </g>
        </g>
    </g>
</svg>