<?xml version="1.0" encoding="UTF-8"?>
<svg width="16px" height="12px" viewBox="0 0 16 12" version="1.1" xmlns="http://www.w3.org/2000/svg" xmlns:xlink="http://www.w3.org/1999/xlink">
    <!-- Generator: Sketch 46.2 (44496) - http://www.bohemiancoding.com/sketch -->
    <title>Group</title>
    <desc>Created with Sketch.</desc>
    <defs></defs>
    <g id="Page-1" stroke="none" stroke-width="1" fill="none" fill-rule="evenodd">
        <g id="material_common_sprite39" transform="translate(-55.000000, -1422.000000)" fill="#000000">
            <g id="Group" transform="translate(55.000000, 1422.000000)">
                <path d="M10,6 C11.6575,6 13,4.6575 13,3 C13,1.3425 11.6575,0 10,0 C8.3425,0 7,1.3425 7,3 C7,4.6575 8.3425,6 10,6 L10,6 Z M4,4 L4,2 L2,2 L2,4 L0,4 L0,6 L2,6 L2,8 L4,8 L4,6 L6,6 L6,4 L4,4 Z M4,10.6666667 L4,12 L16,12 L16,10.6666667 C16,8.89333333 12.0025,8 10,8 C7.9975,8 4,8.89333333 4,10.6666667 Z" id="Shape"></path>
            </g>
        </g>
    </g>
</svg>