<?xml version="1.0" encoding="UTF-8"?>
<svg width="10px" height="12px" viewBox="0 0 10 12" version="1.1" xmlns="http://www.w3.org/2000/svg" xmlns:xlink="http://www.w3.org/1999/xlink">
    <!-- Generator: Sketch 46.2 (44496) - http://www.bohemiancoding.com/sketch -->
    <title>Group</title>
    <desc>Created with Sketch.</desc>
    <defs></defs>
    <g id="Page-1" stroke="none" stroke-width="1" fill="none" fill-rule="evenodd">
        <g id="material_common_sprite39" transform="translate(-4.000000, -1242.000000)" fill="#000000">
            <g id="Group" transform="translate(4.000000, 1242.000000)">
                <path d="M9,3.5 C9,1.57 7.43,0 5.5,0 L1.77635684e-15,0 L1.77635684e-15,12 L6.25,12 C8.04,12 9.5,10.54 9.5,8.75 C9.5,7.45 8.73,6.34 7.63,5.82 C8.46,5.24 9,4.38 9,3.5 Z M5,2 C5.82999992,2 6.5,2.67 6.5,3.5 C6.5,4.33 5.82999992,5 5,5 L3,5 L3,2 L5,2 Z M3,10 L3,7 L5.5,7 C6.32999992,7 7,7.67 7,8.5 C7,9.33 6.32999992,10 5.5,10 L3,10 Z" id="Shape"></path>
            </g>
        </g>
    </g>
</svg>