<?xml version="1.0" encoding="UTF-8"?>
<svg width="14px" height="14px" viewBox="0 0 14 14" version="1.1" xmlns="http://www.w3.org/2000/svg" xmlns:xlink="http://www.w3.org/1999/xlink">
    <!-- Generator: Sketch 46.2 (44496) - http://www.bohemiancoding.com/sketch -->
    <title>Group</title>
    <desc>Created with Sketch.</desc>
    <defs></defs>
    <g id="Page-1" stroke="none" stroke-width="1" fill="none" fill-rule="evenodd">
        <g id="material_common_sprite39" transform="translate(-56.000000, -1547.000000)" fill="#000000">
            <g id="Group" transform="translate(56.000000, 1547.000000)">
                <path d="M0,11 L2,11 L2,11.5 L1,11.5 L1,12.5 L2,12.5 L2,13 L0,13 L0,14 L3,14 L3,10 L0,10 L0,11 Z M0,6 L1.8,6 L0,8.1 L0,9 L3,9 L3,8 L1.2,8 L3,5.9 L3,5 L0,5 L0,6 Z M1,4 L2,4 L2,0 L0,0 L0,1 L1,1 L1,4 Z M5,1 L5,3 L14,3 L14,1 L5,1 Z M5,13 L14,13 L14,11 L5,11 L5,13 Z M5,8 L14,8 L14,6 L5,6 L5,8 Z" id="Shape"></path>
            </g>
        </g>
    </g>
</svg>